<svg xmlns="http://www.w3.org/2000/svg" viewBox="0 0 64 64"><defs></defs><g transform="rotate(0 32 32)"><path d="M32 31 C23 26 16.5 16 23.5 7.500 C26 4.500 30 5 32 9.500 C34 5 38 4.500 40.500 7.500 C47.500 16 41 26 32 31 Z" fill="#f277a2"/></g><g transform="rotate(72 32 32)"><path d="M32 31 C23 26 16.5 16 23.5 7.500 C26 4.500 30 5 32 9.500 C34 5 38 4.500 40.500 7.500 C47.500 16 41 26 32 31 Z" fill="#f277a2"/></g><g transform="rotate(144 32 32)"><path d="M32 31 C23 26 16.5 16 23.5 7.500 C26 4.500 30 5 32 9.500 C34 5 38 4.500 40.500 7.500 C47.500 16 41 26 32 31 Z" fill="#f277a2"/></g><g transform="rotate(216 32 32)"><path d="M32 31 C23 26 16.5 16 23.5 7.500 C26 4.500 30 5 32 9.500 C34 5 38 4.500 40.500 7.500 C47.500 16 41 26 32 31 Z" fill="#f277a2"/></g><g transform="rotate(288 32 32)"><path d="M32 31 C23 26 16.5 16 23.5 7.500 C26 4.500 30 5 32 9.500 C34 5 38 4.500 40.500 7.500 C47.500 16 41 26 32 31 Z" fill="#f277a2"/></g><g transform="rotate(36 32 32)"><g transform="rotate(0 32 32)"><path d="M32 32 L32 24" stroke="#fff" stroke-width="1.400" stroke-linecap="round"/><circle cx="32" cy="23.500" r="1.500" fill="#fff"/></g><g transform="rotate(72 32 32)"><path d="M32 32 L32 24" stroke="#fff" stroke-width="1.400" stroke-linecap="round"/><circle cx="32" cy="23.500" r="1.500" fill="#fff"/></g><g transform="rotate(144 32 32)"><path d="M32 32 L32 24" stroke="#fff" stroke-width="1.400" stroke-linecap="round"/><circle cx="32" cy="23.500" r="1.500" fill="#fff"/></g><g transform="rotate(216 32 32)"><path d="M32 32 L32 24" stroke="#fff" stroke-width="1.400" stroke-linecap="round"/><circle cx="32" cy="23.500" r="1.500" fill="#fff"/></g><g transform="rotate(288 32 32)"><path d="M32 32 L32 24" stroke="#fff" stroke-width="1.400" stroke-linecap="round"/><circle cx="32" cy="23.500" r="1.500" fill="#fff"/></g></g><circle cx="32" cy="32" r="2.600" fill="#fff"/></svg>